<svg id="Layer_1" data-name="Layer 1" xmlns="http://www.w3.org/2000/svg" width="200" height="200" viewBox="0 0 200 200"><title>instagram_1</title><path d="M139.2,52.1a8.9,8.9,0,0,0-9.1,8.6,9.1,9.1,0,0,0,8.9,9.2,8.9,8.9,0,0,0,8.8-8.8A8.8,8.8,0,0,0,139.2,52.1Z" fill="#f573b8"/><path d="M100,62.7A37.3,37.3,0,1,0,137.3,100,37.3,37.3,0,0,0,100,62.7Zm0,61.4A24.1,24.1,0,1,1,124.1,100,24.1,24.1,0,0,1,100,124.1Z" fill="#f573b8"/><path d="M100,62.7A37.3,37.3,0,1,0,137.3,100,37.3,37.3,0,0,0,100,62.7Zm0,61.4A24.1,24.1,0,1,1,124.1,100,24.1,24.1,0,0,1,100,124.1Z" fill="#f573b8"/><path d="M139.2,52.1a8.9,8.9,0,0,0-9.1,8.6,9.1,9.1,0,0,0,8.9,9.2,8.9,8.9,0,0,0,8.8-8.8A8.8,8.8,0,0,0,139.2,52.1Z" fill="#f573b8"/><path d="M132,26.9H68A41.1,41.1,0,0,0,26.9,68v64A41.1,41.1,0,0,0,68,173.1h64A41.1,41.1,0,0,0,173.1,132V68A41.1,41.1,0,0,0,132,26.9ZM159.9,132A27.9,27.9,0,0,1,132,159.9H68A27.9,27.9,0,0,1,40.1,132V68A27.9,27.9,0,0,1,68,40.1h64A27.9,27.9,0,0,1,159.9,68Z" fill="#f573b8"/></svg>