<svg id="Layer_1" data-name="Layer 1" xmlns="http://www.w3.org/2000/svg" width="200" height="200" viewBox="0 0 200 200"><title>instagram</title><path d="M132,40.1H68A27.9,27.9,0,0,0,40.1,68v64A27.9,27.9,0,0,0,68,159.9h64A27.9,27.9,0,0,0,159.9,132V68A27.9,27.9,0,0,0,132,40.1Zm-32,97.2A37.3,37.3,0,1,1,137.3,100,37.3,37.3,0,0,1,100,137.3Zm39-67.4a9.1,9.1,0,0,1-8.9-9.2,8.9,8.9,0,0,1,9.1-8.6,8.8,8.8,0,0,1,8.6,9A8.9,8.9,0,0,1,139,69.9Z" fill="#d1ff29"/><circle cx="100" cy="100" r="24.1" fill="#d1ff29"/><path d="M0,0V200H200V0ZM173.1,132A41.1,41.1,0,0,1,132,173.1H68A41.1,41.1,0,0,1,26.9,132V68A41.1,41.1,0,0,1,68,26.9h64A41.1,41.1,0,0,1,173.1,68Z" fill="#d1ff29"/></svg>